# xmcd CD database file
#
# Track frame offsets:
#	150
#	16550
#	34612
#	53450
#	71037
#	81412
#	99412
#	115125
#	130387
#	145762
#	162025
#	180562
#	195475
#
# Disc length: 2823 seconds
#
# Revision: 2
# Processed by: cddbd v1.4PL0 Copyright (c) Steve Scherf et al.
# Submitted via: CDex 1.50Beta3
#
DISCID=9e0b050d
DTITLE=Barbara Clear - Wings of Fantasy
DYEAR=1900
DGENRE=Country
TTITLE0=Wings of Fantasy
TTITLE1=Delta Dreamland
TTITLE2=I am a Bird
TTITLE3=Ladies
TTITLE4=Taxi Driver
TTITLE5=Faraway Eyes
TTITLE6=Feelin´ Crazy
TTITLE7=Don´t touch me with Diamonds
TTITLE8=It´s not Enough
TTITLE9=She´s not There
TTITLE10=Life is too short
TTITLE11=Turn the Night into Day
TTITLE12=Lovers
EXTD=
EXTT0=
EXTT1=
EXTT2=
EXTT3=
EXTT4=
EXTT5=
EXTT6=
EXTT7=
EXTT8=
EXTT9=
EXTT10=
EXTT11=
EXTT12=
PLAYORDER=
